# Blender 4.2.0
# www.blender.org
mtllib blast.mtl
o blast
v -0.000000 0.000000 -0.200000
v 0.000000 0.000000 0.090000
v 0.060000 0.000000 -0.000000
v 0.030000 -0.051962 0.050000
v -0.030000 -0.051962 0.050000
v -0.060000 -0.000000 0.050000
v -0.030000 0.051962 0.050000
v 0.030000 0.051962 0.050000
v -0.000000 -0.000000 -0.300000
v 0.000000 0.000000 0.110000
v 0.080000 0.000000 -0.070000
v 0.040000 -0.069282 0.060000
v -0.040000 -0.069282 0.060000
v -0.080000 -0.000000 0.060000
v -0.040000 0.069282 0.060000
v 0.040000 0.069282 0.060000
v 0.040000 0.069282 -0.070000
v 0.080000 0.000000 0.060000
v -0.040000 0.069282 -0.070000
v -0.080000 -0.000000 -0.070000
v -0.040000 -0.069282 -0.070000
v 0.040000 -0.069282 -0.070000
v 0.030000 0.051962 -0.000000
v 0.060000 0.000000 0.050000
v -0.030000 0.051962 0.000000
v -0.060000 -0.000000 0.000000
v -0.030000 -0.051962 0.000000
v 0.030000 -0.051962 -0.000000
v -0.139625 0.080612 -0.100000
v 0.139625 0.080612 -0.100000
v 0.000000 -0.161225 -0.100000
v -0.139625 -0.080612 -0.100000
v -0.000000 0.161225 -0.100000
v 0.139625 -0.080612 -0.100000
vn -0.0000 -0.0000 -1.0000
vn -0.0000 -0.0000 1.0000
vn 0.9903 -0.0000 -0.1390
vn 0.4541 -0.7866 0.4185
vn -0.4541 -0.7865 0.4185
vn -0.9082 -0.0000 0.4185
vn -0.4541 0.7866 0.4185
vn 0.4541 0.7865 0.4185
vn -0.8383 -0.0000 0.5453
vn -0.3942 0.6827 -0.6153
vn 0.3942 0.6827 -0.6153
vn 0.7883 -0.0000 -0.6153
vn 0.3942 -0.6827 -0.6153
vn -0.3942 -0.6827 -0.6153
vn -0.4191 -0.7259 0.5453
vn -0.7883 -0.0000 -0.6153
vn 0.4191 -0.7259 0.5453
vn 0.8383 -0.0000 0.5453
vn 0.4191 0.7259 0.5453
vn -0.4191 0.7259 0.5453
vn 0.4951 0.8576 -0.1390
vn 0.9082 -0.0000 0.4185
vn -0.4952 0.8576 -0.1390
vn -0.9903 -0.0000 -0.1390
vn -0.4951 -0.8576 -0.1390
vn 0.4952 -0.8576 -0.1390
vn 0.6896 -0.3981 0.6050
vn -0.6896 -0.3981 0.6050
vn -0.0000 0.7963 0.6050
vn 0.6896 0.3981 0.6050
vn -0.0000 -0.7963 0.6050
vn -0.6896 0.3981 0.6050
vt 0.437500 0.187500
vt 0.312500 0.187500
vt 0.562500 0.187500
vt 0.437500 0.812500
vt 0.312500 0.812500
vt 0.562500 0.812500
s 1
usemtl Material
f 24/1/22 2/2/2 4/1/4
f 4/1/4 2/2/2 5/1/5
f 5/1/5 2/2/2 6/1/6
f 6/1/6 2/2/2 7/1/7
f 7/1/7 2/2/2 8/1/8
f 8/1/8 2/2/2 24/1/22
f 1/3/1 23/1/21 3/1/3
f 1/3/1 25/1/23 23/1/21
f 1/3/1 26/1/24 25/1/23
f 1/3/1 27/1/25 26/1/24
f 1/3/1 28/1/26 27/1/25
f 1/3/1 3/1/3 28/1/26
f 18/4/16 12/4/10 10/5/1
f 12/4/10 13/4/11 10/5/1
f 13/4/11 14/4/12 10/5/1
f 14/4/12 15/4/13 10/5/1
f 15/4/13 16/4/14 10/5/1
f 16/4/14 18/4/16 10/5/1
f 9/6/2 11/4/9 17/4/15
f 9/6/2 17/4/15 19/4/17
f 9/6/2 19/4/17 20/4/18
f 9/6/2 20/4/18 21/4/19
f 9/6/2 21/4/19 22/4/20
f 9/6/2 22/4/20 11/4/9
f 17/4/15 30/6/28 16/4/14
f 16/4/14 30/6/28 18/4/16
f 18/4/16 30/6/28 11/4/9
f 11/4/9 30/6/28 17/4/15
f 7/1/7 23/1/21 25/1/23
f 8/1/8 23/1/21 7/1/7
f 6/1/6 25/1/23 26/1/24
f 7/1/7 25/1/23 6/1/6
f 5/1/5 26/1/24 27/1/25
f 6/1/6 26/1/24 5/1/5
f 4/1/4 27/1/25 28/1/26
f 5/1/5 27/1/25 4/1/4
f 24/1/22 28/1/26 3/1/3
f 4/1/4 28/1/26 24/1/22
f 8/1/8 3/1/3 23/1/21
f 24/1/22 3/1/3 8/1/8
f 21/4/19 31/6/29 22/4/20
f 13/4/11 31/6/29 21/4/19
f 12/4/10 31/6/29 13/4/11
f 22/4/20 31/6/29 12/4/10
f 20/4/18 32/6/30 21/4/19
f 14/4/12 32/6/30 20/4/18
f 13/4/11 32/6/30 14/4/12
f 21/4/19 32/6/30 13/4/11
f 19/4/17 29/6/27 20/4/18
f 15/4/13 29/6/27 19/4/17
f 14/4/12 29/6/27 15/4/13
f 20/4/18 29/6/27 14/4/12
f 17/4/15 33/6/31 19/4/17
f 16/4/14 33/6/31 17/4/15
f 15/4/13 33/6/31 16/4/14
f 19/4/17 33/6/31 15/4/13
f 22/4/20 34/6/32 11/4/9
f 12/4/10 34/6/32 22/4/20
f 18/4/16 34/6/32 12/4/10
f 11/4/9 34/6/32 18/4/16
