# Blender 4.2.0
# www.blender.org
mtllib projectile.mtl
o projectile
v -0.000000 0.000000 -0.200000
v 0.000000 0.000000 0.060000
v 0.060000 0.000000 -0.000000
v 0.030000 -0.051962 -0.000000
v -0.030000 -0.051962 0.000000
v -0.060000 -0.000000 0.000000
v -0.030000 0.051962 0.000000
v 0.030000 0.051962 -0.000000
v -0.000000 -0.000000 -0.300000
v 0.000000 0.000000 0.100000
v 0.100000 0.000000 -0.000000
v 0.050000 -0.086603 -0.000000
v -0.050000 -0.086603 0.000000
v -0.100000 -0.000000 0.000000
v -0.050000 0.086603 0.000000
v 0.050000 0.086603 -0.000000
vn -0.0000 -0.0000 -1.0000
vn -0.0000 -0.0000 1.0000
vn 0.9771 -0.0000 0.2129
vn 0.4885 -0.8462 0.2129
vn -0.4885 -0.8462 0.2129
vn -0.9771 -0.0000 0.2129
vn -0.4885 0.8462 0.2129
vn 0.4885 0.8462 0.2129
vn -0.9799 -0.0000 -0.1994
vn -0.4900 0.8486 -0.1994
vn 0.4900 0.8486 -0.1994
vn 0.9799 -0.0000 -0.1994
vn 0.4900 -0.8486 -0.1994
vn -0.4900 -0.8486 -0.1994
vt 0.437500 0.187500
vt 0.312500 0.187500
vt 0.562500 0.187500
vt 0.437500 0.812500
vt 0.312500 0.812500
vt 0.562500 0.812500
s 1
usemtl Material
f 3/1/3 2/2/2 4/1/4
f 4/1/4 2/2/2 5/1/5
f 5/1/5 2/2/2 6/1/6
f 6/1/6 2/2/2 7/1/7
f 7/1/7 2/2/2 8/1/8
f 8/1/8 2/2/2 3/1/3
f 1/3/1 8/1/8 3/1/3
f 1/3/1 7/1/7 8/1/8
f 1/3/1 6/1/6 7/1/7
f 1/3/1 5/1/5 6/1/6
f 1/3/1 4/1/4 5/1/5
f 1/3/1 3/1/3 4/1/4
f 11/4/9 12/4/10 10/5/1
f 12/4/10 13/4/11 10/5/1
f 13/4/11 14/4/12 10/5/1
f 14/4/12 15/4/13 10/5/1
f 15/4/13 16/4/14 10/5/1
f 16/4/14 11/4/9 10/5/1
f 9/6/2 11/4/9 16/4/14
f 9/6/2 16/4/14 15/4/13
f 9/6/2 15/4/13 14/4/12
f 9/6/2 14/4/12 13/4/11
f 9/6/2 13/4/11 12/4/10
f 9/6/2 12/4/10 11/4/9
