# Blender 4.2.0
# www.blender.org
mtllib rocket.mtl
o rocket
v -0.070711 0.000000 0.700000
v 0.000000 -0.070711 0.700000
v -0.070711 0.000000 0.000000
v -0.000000 -0.070711 0.000000
v 0.000000 0.070711 0.700000
v 0.070711 -0.000000 0.700000
v -0.000000 0.070711 0.000000
v 0.070711 -0.000000 -0.000000
v -0.070710 0.000000 1.400000
v 0.000000 -0.070711 1.400000
v 0.000000 0.070711 1.400000
v 0.070711 0.000000 1.400000
v -0.070710 0.000000 1.500000
v 0.000000 -0.070711 1.500000
v 0.000000 0.070711 1.500000
v 0.070711 0.000000 1.500000
v -0.049497 0.021213 0.350000
v -0.049498 0.021213 0.050000
v -0.021213 0.049497 0.350000
v -0.021213 0.049497 0.050000
v -0.120208 0.091924 0.150000
v -0.091924 0.120208 0.150000
v 0.049497 -0.021213 0.350000
v 0.120208 -0.091924 0.150000
v 0.049497 -0.021213 0.050000
v -0.021213 -0.049497 0.050000
v 0.021213 -0.049497 0.050000
v 0.021213 -0.049497 0.350000
v 0.091924 -0.120208 0.150000
v -0.021213 -0.049497 0.350000
v -0.049497 -0.021213 0.350000
v -0.049498 -0.021213 0.050000
v -0.091924 -0.120208 0.150000
v -0.120208 -0.091924 0.150000
v 0.021213 0.049497 0.350000
v 0.091924 0.120208 0.150000
v 0.021213 0.049497 0.050000
v 0.049497 0.021213 0.050000
v 0.049497 0.021213 0.350000
v 0.120208 0.091924 0.150000
v 0.000000 -0.150000 0.800000
v 0.000000 -0.150000 1.200000
v -0.106066 -0.106066 0.800000
v -0.106066 -0.106066 1.200000
v -0.150000 -0.000000 0.800000
v -0.150000 0.000000 1.200000
v -0.106066 0.106066 0.800000
v -0.106066 0.106066 1.200000
v 0.000000 0.150000 0.800000
v 0.000000 0.150000 1.200000
v 0.106066 0.106066 0.800000
v 0.106066 0.106066 1.200000
v 0.150000 -0.000000 0.800000
v 0.150000 0.000000 1.200000
v 0.106066 -0.106066 0.800000
v 0.106066 -0.106066 1.200000
vn -1.0000 -0.0000 -0.0000
vn -0.0000 1.0000 -0.0000
vn -0.0000 -0.0000 -1.0000
vn 1.0000 -0.0000 -0.0000
vn -0.0000 -1.0000 -0.0000
vn -0.0000 -0.0000 1.0000
vn -0.6325 0.6325 0.4472
vn -0.7071 -0.7071 -0.0000
vn 0.7071 0.7071 -0.0000
vn -0.5000 0.5000 -0.7071
vn -0.6325 -0.6325 0.4472
vn 0.6325 -0.6325 0.4472
vn 0.5000 -0.5000 -0.7071
vn 0.7071 -0.7071 -0.0000
vn -0.7071 0.7071 -0.0000
vn -0.5000 -0.5000 -0.7071
vn 0.6325 0.6325 0.4472
vn 0.5000 0.5000 -0.7071
vn -0.0000 0.6723 -0.7403
vn -0.5402 0.5402 -0.6452
vn -0.0000 0.7836 -0.6213
vn -0.6723 -0.0000 -0.7403
vn -0.7836 -0.0000 -0.6213
vn -0.5402 -0.5402 -0.6452
vn -0.0000 -0.6723 -0.7403
vn -0.0000 -0.7836 -0.6213
vn 0.5402 -0.5402 -0.6452
vn 0.6723 -0.0000 -0.7403
vn 0.7836 -0.0000 -0.6213
vn 0.5402 0.5402 -0.6452
vn -0.0000 0.8575 0.5144
vn 0.6536 0.6536 0.3817
vn -0.0000 0.9296 0.3685
vn 0.8575 -0.0000 0.5144
vn 0.9296 -0.0000 0.3685
vn 0.6536 -0.6536 0.3817
vn -0.0000 -0.8575 0.5144
vn -0.0000 -0.9296 0.3685
vn -0.6536 -0.6536 0.3817
vn -0.8575 -0.0000 0.5144
vn -0.9296 -0.0000 0.3685
vn -0.6536 0.6536 0.3817
vt 0.968750 0.703125
vt 0.781250 0.703125
vt 0.781250 0.015625
vt 0.968750 0.015625
vt 0.031250 0.761905
vt 0.031250 0.984127
vt 0.250000 0.873016
vt 0.968750 0.746032
vt 0.968750 0.841270
vt 0.812500 0.841270
vt 0.812500 0.746032
vt 0.406250 0.888889
vt 0.093750 0.730159
vt 0.718750 0.730159
vt 0.687500 0.380952
vt 0.593750 0.380952
vt 0.593750 0.142857
vt 0.687500 0.142857
vt 0.968750 0.984375
vt 0.375000 0.984375
vt 0.781250 0.875000
vt 0.593750 0.015873
vt 0.687500 0.015873
vt 0.531250 0.156250
vt 0.531250 0.500000
vt 0.281250 0.500000
vt 0.281250 0.156250
vt 0.031250 0.500000
vt 0.031250 0.156250
vt 0.062500 0.015625
vt 0.281250 0.140625
vt 0.031250 0.140625
vt 0.375000 0.015625
vt 0.187500 0.015625
vt 0.500000 0.015625
vt 0.531250 0.140625
vt 0.437500 0.703125
vt 0.281250 0.515625
vt 0.531250 0.515625
vt 0.187500 0.703125
vt 0.375000 0.703125
vt 0.125000 0.703125
vt 0.031250 0.515625
s 1
usemtl Material
f 1/1/1 5/2/2 7/3/2 3/4/1
s 0
f 4/5/3 7/6/3 8/7/3
s 1
f 8/3/4 7/4/2 5/1/2 6/2/4
f 6/1/4 2/2/5 4/3/5 8/4/4
f 2/1/5 1/2/1 3/3/1 4/4/5
f 11/8/2 9/9/1 13/10/1 15/11/2
s 0
f 16/12/6 15/13/6 14/14/6
s 1
f 9/8/1 10/9/5 14/10/5 13/11/1
f 12/8/4 11/9/2 15/10/2 16/11/4
f 10/8/5 12/9/4 16/10/4 14/11/5
s 0
f 17/15/7 19/16/7 22/17/7 21/18/7
f 18/19/8 17/20/8 21/21/8
f 19/20/9 20/19/9 22/21/9
f 20/22/10 18/23/10 21/18/10 22/17/10
f 25/19/9 23/20/9 24/21/9
f 28/20/8 27/19/8 29/21/8
f 30/15/11 31/16/11 34/17/11 33/18/11
f 23/15/12 28/16/12 29/17/12 24/18/12
f 27/22/13 25/23/13 24/18/13 29/17/13
f 26/19/14 30/20/14 33/21/14
f 31/20/15 32/19/15 34/21/15
f 32/22/16 26/23/16 33/18/16 34/17/16
f 37/19/15 35/20/15 36/21/15
f 39/20/14 38/19/14 40/21/14
f 35/15/17 39/16/17 40/17/17 36/18/17
f 38/22/18 37/23/18 36/18/18 40/17/18
s 1
f 41/24/5 42/25/5 44/26/8 43/27/8
f 43/27/8 44/26/8 46/28/1 45/29/1
f 45/24/1 46/25/1 48/26/15 47/27/15
f 47/27/15 48/26/15 50/28/2 49/29/2
f 49/24/2 50/25/2 52/26/9 51/27/9
f 51/27/9 52/26/9 54/28/4 53/29/4
f 53/24/4 54/25/4 56/26/14 55/27/14
f 55/27/14 56/26/14 42/28/5 41/29/5
f 5/30/19 47/31/20 49/32/21
f 1/33/22 47/31/20 5/34/19
f 47/31/20 1/35/22 45/36/23
f 43/31/24 45/32/23 1/30/22
f 1/34/22 2/33/25 43/31/24
f 41/36/26 43/31/24 2/35/25
f 2/30/25 55/31/27 41/32/26
f 2/34/25 6/33/28 55/31/27
f 53/36/29 55/31/27 6/35/28
f 6/30/28 51/31/30 53/32/29
f 6/34/28 5/33/19 51/31/30
f 49/36/21 51/31/30 5/35/19
f 11/37/31 52/38/32 50/39/33
f 12/40/34 52/38/32 11/41/31
f 52/38/32 12/42/34 54/43/35
f 54/39/35 12/37/34 56/38/36
f 12/41/34 10/40/37 56/38/36
f 10/42/37 42/43/38 56/38/36
f 42/39/38 10/37/37 44/38/39
f 10/41/37 9/40/40 44/38/39
f 46/43/41 44/38/39 9/42/40
f 9/37/40 48/38/42 46/39/41
f 9/41/40 11/40/31 48/38/42
f 50/43/33 48/38/42 11/42/31
s 0
f 14/14/6 15/13/6 13/12/6
f 7/6/3 4/5/3 3/7/3
